<?xml version="1.0" standalone="no"?>
<!DOCTYPE svg PUBLIC "-//W3C//DTD SVG 20010904//EN"
 "http://www.w3.org/TR/2001/REC-SVG-20010904/DTD/svg10.dtd">
<svg version="1.0" xmlns="http://www.w3.org/2000/svg"
 width="24.000000pt" height="24.000000pt" viewBox="0 0 24.000000 24.000000"
 preserveAspectRatio="xMidYMid meet">

<g transform="translate(0.000000,24.000000) scale(0.100000,-0.100000)"
fill="#000000" stroke="none">
<path d="M12 228 c-7 -7 -12 -19 -12 -27 0 -12 3 -11 18 2 10 10 24 17 30 17
23 0 43 -50 55 -134 6 -47 14 -86 17 -86 3 0 11 39 17 86 12 84 32 134 55 134
6 0 20 -7 30 -17 21 -19 24 -5 5 22 -28 37 -97 -12 -97 -70 0 -27 -17 -16 -23
15 -11 55 -65 88 -95 58z"/>
</g>
</svg>
